<svg>
    <symbol xmlns="http://www.w3.org/2000/svg" width="40" height="43" viewBox="0 0 40 43" id="file">
        <path d="M15.9933 23.8724V22.5867C15.9933 22.2251 16.2746 21.9439 16.6362 21.9439H30.779C31.1406 21.9439 31.4219 22.2251 31.4219 22.5867V23.8724C31.4219 24.234 31.1406 24.5153 30.779 24.5153H16.6362C16.2746 24.5153 15.9933 24.234 15.9933 23.8724Z" fill="white"/>
        <path d="M16.6362 27.0867H30.779C31.1406 27.0867 31.4219 27.368 31.4219 27.7296V29.0153C31.4219 29.3769 31.1406 29.6581 30.779 29.6581H16.6362C16.2746 29.6581 15.9933 29.3769 15.9933 29.0153V27.7296C15.9933 27.368 16.2746 27.0867 16.6362 27.0867Z" fill="white"/>
        <path d="M16.6362 32.2296H30.779C31.1406 32.2296 31.4219 32.5108 31.4219 32.8724V34.1581C31.4219 34.5198 31.1406 34.801 30.779 34.801H16.6362C16.2746 34.801 15.9933 34.5198 15.9933 34.1581V32.8724C15.9933 32.5108 16.2746 32.2296 16.6362 32.2296Z" fill="white"/>
        <path fill-rule="evenodd" clip-rule="evenodd" d="M8.27901 15.8148C4.18382 15.8148 0.864014 12.495 0.864014 8.3998C0.864014 4.30461 4.18382 0.984802 8.27901 0.984802C11.723 0.984802 14.6186 3.33277 15.4524 6.51529H28.2076C29.2723 6.51529 30.7589 7.13806 31.5022 7.88136L37.7701 14.1492C38.5134 14.8925 39.1362 16.3791 39.1362 17.4439V40.5867C39.1362 41.6515 38.2723 42.5153 37.2076 42.5153H10.2076C9.14285 42.5153 8.27901 41.6515 8.27901 40.5867L8.27901 15.8148ZM10.8504 15.3568C13.4729 14.3871 15.3971 11.977 15.6626 9.08672H26.279V17.4439C26.279 18.5086 27.1429 19.3724 28.2076 19.3724H36.5647V39.9439H10.8504V15.3568ZM29.6741 9.6894C29.5335 9.54877 29.192 9.36797 28.8504 9.24743V16.801H36.404C36.2835 16.4595 36.1027 16.118 35.9621 15.9773L29.6741 9.6894ZM9.27901 9.39984H13.279V7.39984H9.27901V3.39984H7.27901V7.39984H3.27901V9.39984H7.27901V13.3998H9.27901V9.39984Z" fill="white"/>
    </symbol>

    <symbol xmlns="http://www.w3.org/2000/svg" width="30" height="35" viewBox="0 0 35 35" id="search">
        <path d="M23.9285 14.9286C23.9285 19.8906 19.8906 23.9286 14.9285 23.9286C9.96645 23.9286 5.9285 19.8906 5.9285 14.9286C5.9285 9.96651 9.96645 5.92856 14.9285 5.92856C19.8906 5.92856 23.9285 9.96651 23.9285 14.9286ZM34.2142 31.6429C34.2142 30.9598 33.933 30.2969 33.4709 29.8348L26.5803 22.9442C28.2075 20.5937 29.0714 17.7812 29.0714 14.9286C29.0714 7.11383 22.7432 0.785706 14.9285 0.785706C7.11377 0.785706 0.785645 7.11383 0.785645 14.9286C0.785645 22.7433 7.11377 29.0714 14.9285 29.0714C17.7812 29.0714 20.5937 28.2076 22.9441 26.5803L29.8348 33.4509C30.2968 33.933 30.9598 34.2143 31.6428 34.2143C33.049 34.2143 34.2142 33.0491 34.2142 31.6429Z" fill="white"/>
    </symbol>

    <symbol xmlns="http://www.w3.org/2000/svg" width="40" height="27" viewBox="0 0 40 27" id="dollar">
        <path d="M15.9286 18.5357V16.6071H18.5V10.8214H18.4598C18.1384 11.3237 17.8371 11.5446 17.3549 11.9665L15.808 10.3594L18.7812 7.60713H21.0714V16.6071H23.6429V18.5357H15.9286ZM26.2143 13.3928C26.2143 9.7366 24.0045 5.03571 19.7857 5.03571C15.567 5.03571 13.3571 9.7366 13.3571 13.3928C13.3571 17.0491 15.567 21.75 19.7857 21.75C24.0045 21.75 26.2143 17.0491 26.2143 13.3928ZM36.5 18.5357C33.6674 18.5357 31.3571 20.846 31.3571 23.6786H8.21429C8.21429 20.846 5.90402 18.5357 3.07143 18.5357V8.24999C5.90402 8.24999 8.21429 5.93972 8.21429 3.10713H31.3571C31.3571 5.93972 33.6674 8.24999 36.5 8.24999V18.5357ZM39.0714 1.82142C39.0714 1.11829 38.4888 0.535706 37.7857 0.535706H1.78571C1.08259 0.535706 0.5 1.11829 0.5 1.82142V24.9643C0.5 25.6674 1.08259 26.25 1.78571 26.25H37.7857C38.4888 26.25 39.0714 25.6674 39.0714 24.9643V1.82142Z" fill="white"/>
    </symbol>

    <symbol xmlns="http://www.w3.org/2000/svg" width="36" height="29" viewBox="0 0 36 29" id="mail">
        <path d="M33.4286 25.6071C33.4286 25.9487 33.1272 26.25 32.7857 26.25H3.21429C2.87277 26.25 2.57143 25.9487 2.57143 25.6071V10.1786C2.9933 10.6607 3.45536 11.1027 3.95759 11.5045C6.83036 13.7143 9.72322 15.9643 12.5156 18.2946C14.0223 19.5603 15.8906 21.1071 17.9799 21.1071H18H18.0201C20.1094 21.1071 21.9777 19.5603 23.4844 18.2946C26.2768 15.9643 29.1696 13.7143 32.0424 11.5045C32.5446 11.1027 33.0067 10.6607 33.4286 10.1786V25.6071ZM33.4286 4.49329C33.4286 6.20088 31.7813 8.43079 30.4754 9.45535C27.7835 11.5647 25.0915 13.6942 22.4196 15.8237C21.3549 16.6875 19.4263 18.5357 18.0201 18.5357H18H17.9799C16.5737 18.5357 14.6451 16.6875 13.5804 15.8237C10.9085 13.6942 8.21652 11.5647 5.52455 9.45535C3.71652 8.02901 2.57143 6.04017 2.57143 3.74999C2.57143 3.40847 2.87277 3.10713 3.21429 3.10713H32.7857C33.5491 3.10713 33.4286 3.99106 33.4286 4.49329ZM36 3.74999C36 1.98213 34.5536 0.535706 32.7857 0.535706H3.21429C1.44643 0.535706 0 1.98213 0 3.74999V25.6071C0 27.375 1.44643 28.8214 3.21429 28.8214H32.7857C34.5536 28.8214 36 27.375 36 25.6071V3.74999Z" fill="white"/>
    </symbol>

    <symbol xmlns="http://www.w3.org/2000/svg" width="31" height="32" viewBox="0 0 31 32" id="pers">
        <path d="M25.7858 23.9643C25.7858 25.3705 24.6206 26.5357 23.2144 26.5357C21.8081 26.5357 20.643 25.3705 20.643 23.9643C20.643 22.558 21.8081 21.3928 23.2144 21.3928C24.6206 21.3928 25.7858 22.558 25.7858 23.9643ZM10.3572 8.5357C10.3572 9.94195 9.19207 11.1071 7.78582 11.1071C6.37957 11.1071 5.21439 9.94195 5.21439 8.5357C5.21439 7.12945 6.37957 5.96427 7.78582 5.96427C9.19207 5.96427 10.3572 7.12945 10.3572 8.5357ZM30.9287 23.9643C30.9287 19.7053 27.4733 16.25 23.2144 16.25C18.9555 16.25 15.5001 19.7053 15.5001 23.9643C15.5001 28.2232 18.9555 31.6786 23.2144 31.6786C27.4733 31.6786 30.9287 28.2232 30.9287 23.9643ZM29.0001 2.10713C29.0001 1.404 28.4175 0.821411 27.7144 0.821411H24.5001C24.0983 0.821411 23.7166 1.0223 23.4756 1.34373L2.26127 29.6294C2.10055 29.8504 2.0001 30.1116 2.0001 30.3928C2.0001 31.096 2.58269 31.6786 3.28582 31.6786H6.5001C6.90189 31.6786 7.28359 31.4777 7.52466 31.1562L28.7389 2.87052C28.8997 2.64954 29.0001 2.38838 29.0001 2.10713ZM15.5001 8.5357C15.5001 4.27677 12.0447 0.821411 7.78582 0.821411C3.52689 0.821411 0.0715332 4.27677 0.0715332 8.5357C0.0715332 12.7946 3.52689 16.25 7.78582 16.25C12.0447 16.25 15.5001 12.7946 15.5001 8.5357Z" fill="white"/>
    </symbol>

    <symbol xmlns="http://www.w3.org/2000/svg" width="9" height="7" viewBox="0 0 9 7" id="arrow">
        <path d="M8.93373 5.34847C8.93373 5.4199 8.89801 5.50025 8.84444 5.55382L8.39801 6.00025C8.34444 6.05382 8.26408 6.08954 8.19265 6.08954C8.12123 6.08954 8.04087 6.05382 7.9873 6.00025L4.47837 2.49132L0.969439 6.00025C0.915867 6.05382 0.83551 6.08954 0.764082 6.08954C0.683725 6.08954 0.612296 6.05382 0.558725 6.00025L0.112296 5.55382C0.0587246 5.50025 0.0230103 5.4199 0.0230103 5.34847C0.0230103 5.27704 0.0587246 5.19668 0.112296 5.14311L4.27301 0.982396C4.32658 0.928824 4.40694 0.89311 4.47837 0.89311C4.5498 0.89311 4.63015 0.928824 4.68372 0.982396L8.84444 5.14311C8.89801 5.19668 8.93373 5.27704 8.93373 5.34847Z"/>
    </symbol>

</svg>